<svg xmlns="http://www.w3.org/2000/svg" data-name="Layer 1" viewBox="0 0 95 118.75" x="0px" y="0px"><defs><style>
      .cls-1 {
        fill-rule: evenodd;
        stroke-width: 0px;
      }
    </style></defs><path class="cls-1" d="m83.88,41.74h4.27c.62,0,1.18-.25,1.58-.66.41-.41.66-.97.66-1.58V12.77c0-.62-.25-1.18-.66-1.58s-.97-.66-1.58-.66h-40.02c-.62,0-1.18.25-1.58.66-.41.41-.66.97-.66,1.58v26.73c0,.62.25,1.18.66,1.58.41.41.97.66,1.58.66h20.15c.22,0,.42.07.59.18l13.96,8.06v-7.19c0-.58.47-1.05,1.05-1.05h0Zm-1.19-25.49c.58,0,1.05.47,1.05,1.05s-.47,1.05-1.05,1.05h-29.11c-.58,0-1.05-.47-1.05-1.05s.47-1.05,1.05-1.05h29.11Zm0,7.91c.58,0,1.05.47,1.05,1.05s-.47,1.05-1.05,1.05h-29.11c-.58,0-1.05-.47-1.05-1.05s.47-1.05,1.05-1.05h29.11Zm0,7.91c.58,0,1.05.47,1.05,1.05s-.47,1.05-1.05,1.05h-29.11c-.58,0-1.05-.47-1.05-1.05s.47-1.05,1.05-1.05h29.11Zm-38.92,2.32v5.1c0,1.2.49,2.29,1.28,3.07s1.88,1.28,3.08,1.28h10.19c1.13,1.5,2.02,3.11,2.64,4.8.65,1.77.99,3.64.99,5.57,0,5.77-2.81,10.42-6.93,13.88-5.12,4.29-12.22,6.77-18.57,7.28h0c-.24.02-.48.12-.67.31-2.29,2.31-5.81,4.24-9.6,5.7-2.71,1.04-5.55,1.84-8.18,2.37,2.56-1.66,5.09-4.09,5.68-8.45.12-.54-.2-1.09-.74-1.24-5.48-1.58-10.14-4.37-13.4-7.92-3.11-3.4-4.94-7.52-4.94-11.94,0-5.82,3.17-11.12,8.28-14.96,5.2-3.91,12.41-6.33,20.39-6.33,1.97,0,3.89.15,5.75.43,1.64.25,3.22.6,4.75,1.05h0Zm17.12,9.45c.84,1.3,1.53,2.66,2.05,4.08.73,2.01,1.12,4.12,1.12,6.29,0,6.47-3.12,11.66-7.69,15.5-5.36,4.5-12.74,7.12-19.37,7.74-2.51,2.41-6.17,4.41-10.07,5.91-4.83,1.86-10.05,2.98-13.91,3.21-.36.03-.73-.12-.96-.44-.33-.48-.22-1.13.26-1.47.57-.4,1.29-.79,2.08-1.22,2.6-1.42,6.12-3.34,7.07-7.6-5.46-1.73-10.13-4.61-13.46-8.26-3.47-3.79-5.5-8.39-5.5-13.36,0-6.52,3.49-12.4,9.13-16.64,5.56-4.18,13.21-6.76,21.65-6.76,2.07,0,4.1.16,6.06.45,1.52.23,3,.55,4.43.94V12.77c0-1.2.49-2.29,1.28-3.07.79-.79,1.88-1.28,3.08-1.28h40.02c1.2,0,2.29.49,3.08,1.28.79.79,1.28,1.88,1.28,3.07v26.73c0,1.2-.49,2.29-1.28,3.07-.79.79-1.88,1.28-3.08,1.28h-3.21v7.96h0c0,.18-.05.36-.14.53-.29.5-.93.67-1.44.38l-15.36-8.87h-7.1Zm-11.76,5.1c1.46,0,2.77.59,3.73,1.54.95.95,1.54,2.27,1.54,3.73s-.59,2.77-1.54,3.73c-.95.95-2.27,1.54-3.73,1.54s-2.77-.59-3.73-1.54c-.95-.95-1.54-2.27-1.54-3.73s.59-2.77,1.54-3.73,2.27-1.54,3.73-1.54h0Zm2.24,3.04c-.57-.57-1.36-.93-2.24-.93s-1.67.35-2.24.93c-.57.57-.93,1.36-.93,2.24s.35,1.67.93,2.24c.57.57,1.36.93,2.24.93s1.67-.35,2.24-.93c.57-.57.93-1.36.93-2.24s-.35-1.67-.93-2.24h0Zm-18.09-3.04c-1.46,0-2.77.59-3.73,1.54s-1.54,2.27-1.54,3.73.59,2.77,1.54,3.73c.95.95,2.27,1.54,3.73,1.54s2.77-.59,3.73-1.54c.95-.95,1.54-2.27,1.54-3.73s-.59-2.77-1.54-3.73c-.95-.95-2.27-1.54-3.73-1.54h0Zm2.24,3.04c-.57-.57-1.36-.93-2.24-.93s-1.67.35-2.24.93c-.57.57-.93,1.36-.93,2.24s.35,1.67.93,2.24c.57.57,1.36.93,2.24.93s1.67-.35,2.24-.93c.57-.57.93-1.36.93-2.24s-.35-1.67-.93-2.24h0Zm-18.09-3.04c-1.46,0-2.77.59-3.73,1.54-.95.95-1.54,2.27-1.54,3.73s.59,2.77,1.54,3.73c.95.95,2.27,1.54,3.73,1.54s2.77-.59,3.73-1.54c.95-.95,1.54-2.27,1.54-3.73s-.59-2.77-1.54-3.73c-.95-.95-2.27-1.54-3.73-1.54h0Zm2.24,3.04c-.57-.57-1.36-.93-2.24-.93s-1.67.35-2.24.93-.93,1.36-.93,2.24.35,1.67.93,2.24c.57.57,1.36.93,2.24.93s1.67-.35,2.24-.93c.57-.57.93-1.36.93-2.24s-.35-1.67-.93-2.24Z"/><text x="0" y="110" fill="#000000" font-size="5px" font-weight="bold" font-family="'Helvetica Neue', Helvetica, Arial-Unicode, Arial, Sans-serif">Created by sobokali</text><text x="0" y="115" fill="#000000" font-size="5px" font-weight="bold" font-family="'Helvetica Neue', Helvetica, Arial-Unicode, Arial, Sans-serif">from the Noun Project</text></svg>